<svg width="74" height="74" viewBox="0 0 74 74" fill="none" xmlns="http://www.w3.org/2000/svg">
<g opacity="0.3">
<g clip-path="url(#clip0_761_1381)">
<path d="M45.6639 45.6639C45.83 45.4977 45.9223 45.2716 45.9223 45.0362V37.8447H53.1138C53.3492 37.8447 53.5753 37.7524 53.7415 37.5863C53.9077 37.4201 54 37.1985 54 36.9585V20.8863C54 20.8863 54 20.8724 54 20.8678C54 20.794 53.9861 20.7155 53.9677 20.6416C53.9677 20.6278 53.9585 20.6186 53.9538 20.6047C53.9492 20.5863 53.9446 20.5632 53.9354 20.5447C53.9261 20.517 53.9077 20.4986 53.8938 20.4755C53.8708 20.4339 53.8523 20.397 53.8246 20.3555C53.8015 20.3232 53.7692 20.2908 53.7415 20.2631C53.7138 20.2308 53.6815 20.2031 53.6492 20.1801C53.6123 20.1524 53.5707 20.1293 53.5292 20.1108C53.5061 20.097 53.483 20.0785 53.4599 20.0693C53.4415 20.0601 53.423 20.0554 53.3999 20.0508C53.3861 20.0508 53.3769 20.0416 53.363 20.0416C53.2892 20.0185 53.2153 20.0093 53.1415 20.0093C53.1322 20.0093 53.1276 20.0093 53.123 20.0093H37.0415C36.5523 20.0093 36.1553 20.4062 36.1553 20.8955V28.0869H28.9639C28.4746 28.0869 28.0777 28.4839 28.0777 28.9732V36.16H20.8862C20.397 36.16 20 36.5569 20 37.0462V53.1184C20 53.1184 20 53.1369 20 53.1415C20 53.1831 20.0046 53.2292 20.0138 53.2708C20.0138 53.2846 20.0138 53.2938 20.0185 53.3077C20.0277 53.3585 20.0462 53.4092 20.0646 53.46C20.0692 53.4785 20.0831 53.4923 20.0877 53.5062C20.1292 53.5939 20.1846 53.6769 20.2539 53.7462C20.3185 53.8154 20.4016 53.8662 20.4847 53.9077C20.5031 53.917 20.517 53.9262 20.54 53.9354C20.5908 53.9539 20.6416 53.9677 20.6924 53.9816C20.7062 53.9816 20.7154 53.9816 20.7293 53.9862C20.7708 53.9954 20.817 54 20.8585 54C20.8678 54 20.8724 54 20.8816 54H36.9585C37.1939 54 37.42 53.9077 37.5862 53.7416C37.7524 53.5754 37.8447 53.3492 37.8447 53.1138V45.9224H45.0315C45.2669 45.9224 45.4931 45.8301 45.6592 45.6639H45.6639ZM45.9223 36.0723V29.3286L52.2229 23.028V36.0723H45.9223ZM50.972 21.7725L44.6715 28.0731H37.9278V21.7725H50.972ZM36.1507 29.8502V36.1507H29.8501V29.8502H36.1507ZM28.073 37.9278V44.6715L21.7725 50.9721V37.9278H28.073ZM23.0234 52.2276L29.3239 45.927H36.0676V52.2276H23.028H23.0234ZM37.8401 44.1499V37.8494H44.1406V44.1499H37.8401Z" fill="url(#paint0_linear_761_1381)"/>
</g>
</g>
<defs>
<linearGradient id="paint0_linear_761_1381" x1="28.3443" y1="28.3327" x2="45.6722" y2="45.6605" gradientUnits="userSpaceOnUse">
<stop stop-color="#EFEBDB"/>
<stop offset="1" stop-color="#FF5151"/>
</linearGradient>
<clipPath id="clip0_761_1381">
<rect width="34" height="34" fill="white" transform="translate(20 20)"/>
</clipPath>
</defs>
</svg>
