<svg width="74" height="74" viewBox="0 0 74 74" fill="none" xmlns="http://www.w3.org/2000/svg">
<g opacity="0.3">
<g clip-path="url(#clip0_761_1328)">
<path d="M32.8034 53.8284L33.1567 53.2132L35.2171 49.6491C34.4995 49.5802 33.7982 49.4529 33.1187 49.2779C32.0042 48.9862 30.9496 48.5566 29.9765 48.0103C28.9871 47.4534 28.0793 46.7693 27.2802 45.9896C26.4756 45.2047 25.7798 44.3243 25.209 43.359C24.6436 42.4097 24.2033 41.3808 23.9097 40.2935C23.7901 39.8639 23.6977 39.4237 23.627 38.9729C23.6107 38.8775 23.5944 38.7767 23.5835 38.6812C23.5074 38.1297 23.4694 37.5728 23.4694 37.0053L19.9848 34.3641L16 37C16 37.8963 16.0598 38.7767 16.1794 39.6412C16.1957 39.7791 16.2229 39.9117 16.2392 40.0496C16.3534 40.7709 16.5056 41.4816 16.6958 42.1763C17.1634 43.8841 17.8592 45.507 18.7453 47.0026C19.6477 48.5195 20.7404 49.9143 22.007 51.1448C23.2682 52.3752 24.698 53.4465 26.2527 54.3269C27.7857 55.1914 29.4438 55.8703 31.1997 56.3264C32.45 56.6499 33.7438 56.8674 35.0703 56.9576L33.2274 54.4118L32.8088 53.8337L32.8034 53.8284Z" fill="url(#paint0_linear_761_1328)"/>
<path d="M54.0481 40.6012L53.3686 41.105L52.6782 40.6171L49.4491 38.3312C49.3784 38.9995 49.2534 39.6571 49.0794 40.2936C48.7804 41.3808 48.3401 42.4097 47.7747 43.3591C47.2039 44.3243 46.5081 45.21 45.7035 45.9897C44.899 46.7746 43.9966 47.4535 43.0072 48.0104C42.0341 48.5619 40.9795 48.9915 39.865 49.2832C39.4247 49.3999 38.9735 49.4901 38.5114 49.559C38.4136 49.5749 38.3103 49.5909 38.2124 49.6015C37.647 49.6757 37.0762 49.7128 36.4891 49.7128L34.1461 53.7648L36.4891 57.0053C37.4079 57.0053 38.3103 56.947 39.1964 56.8303C39.3377 56.8144 39.4736 56.7879 39.615 56.7667C40.3543 56.6553 41.0827 56.5068 41.7949 56.3212C43.5453 55.865 45.2088 55.1862 46.7418 54.3217C48.2966 53.4413 49.7263 52.37 50.9875 51.1395C52.2487 49.9091 53.3469 48.5142 54.2493 46.9974C55.1354 45.5017 55.8312 43.8841 56.2987 42.1711C56.6303 40.9671 56.8478 39.7208 56.9402 38.4373L54.0427 40.5959L54.0481 40.6012Z" fill="url(#paint1_linear_761_1328)"/>
<path d="M56.8206 34.3588C56.701 33.4943 56.5271 32.651 56.3042 31.8236C55.8367 30.1159 55.1409 28.493 54.2548 26.9973C53.3523 25.4805 52.2542 24.0856 50.993 22.8552C49.7318 21.6248 48.3021 20.5534 46.7473 19.673C45.2143 18.8085 43.5563 18.1297 41.8058 17.6736C40.5446 17.3447 39.2399 17.1326 37.8972 17.0424L39.9086 20.0284L40.3217 20.6383L39.9086 21.2535L37.821 24.3508C38.5223 24.4198 39.2073 24.5418 39.8705 24.7168C40.9849 25.0085 42.0396 25.4381 43.0126 25.9896C44.002 26.5465 44.9099 27.2254 45.709 28.0103C46.5136 28.7953 47.2094 29.6757 47.7802 30.6409C48.3456 31.5903 48.7859 32.6192 49.0849 33.7064C49.2262 34.2315 49.3404 34.7672 49.4111 35.3187C49.4872 35.8703 49.5252 36.4272 49.5252 36.9947L53.3523 39.7101L56.9946 36.9947C56.9946 36.0984 56.9348 35.218 56.8152 34.3535L56.8206 34.3588Z" fill="url(#paint2_linear_761_1328)"/>
<path d="M36.5 17C35.5812 17 34.6788 17.0583 33.7927 17.175C33.6514 17.1909 33.5155 17.2174 33.3741 17.2387C32.6348 17.35 31.9064 17.4985 31.1942 17.6789C29.4437 18.135 27.7803 18.8138 26.2472 19.6783C24.6925 20.5587 23.2628 21.6248 22.0016 22.8605C20.7404 24.091 19.6422 25.4858 18.7398 27.0027C17.8537 28.4983 17.1579 30.1159 16.6904 31.829C16.3533 33.0541 16.1359 34.3217 16.0435 35.6264L19.3378 33.4466L20.0228 32.9905L20.6806 33.4837L23.54 35.6476C23.6107 34.9846 23.7357 34.3376 23.9097 33.7117C24.2087 32.6245 24.649 31.5956 25.2144 30.6462C25.7852 29.681 26.481 28.7953 27.2856 28.0156C28.0847 27.2307 28.9925 26.5518 29.9819 25.995C30.955 25.4434 32.0096 25.0138 33.1241 24.7221C33.5644 24.6054 34.0156 24.5152 34.4777 24.4463C34.5755 24.4304 34.6788 24.4145 34.7767 24.4039C35.3421 24.3296 35.9129 24.2925 36.4945 24.2925L38.9517 20.6489L36.5 17Z" fill="url(#paint3_linear_761_1328)"/>
</g>
</g>
<defs>
<linearGradient id="paint0_linear_761_1328" x1="38.1852" y1="9.11348" x2="14.7979" y2="82.6387" gradientUnits="userSpaceOnUse">
<stop stop-color="#EFEBDB"/>
<stop offset="1" stop-color="#FF5151"/>
</linearGradient>
<linearGradient id="paint1_linear_761_1328" x1="26.1386" y1="12.6404" x2="57.5515" y2="69.5241" gradientUnits="userSpaceOnUse">
<stop stop-color="#EFEBDB"/>
<stop offset="1" stop-color="#FF5151"/>
</linearGradient>
<linearGradient id="paint2_linear_761_1328" x1="51.9715" y1="13.4996" x2="28.579" y2="87.025" gradientUnits="userSpaceOnUse">
<stop stop-color="#EFEBDB"/>
<stop offset="1" stop-color="#FF5151"/>
</linearGradient>
<linearGradient id="paint3_linear_761_1328" x1="20.3653" y1="15.8279" x2="51.7782" y2="72.7115" gradientUnits="userSpaceOnUse">
<stop stop-color="#EFEBDB"/>
<stop offset="1" stop-color="#FF5151"/>
</linearGradient>
<clipPath id="clip0_761_1328">
<rect width="41" height="40" fill="white" transform="translate(16 17)"/>
</clipPath>
</defs>
</svg>
