<svg width="123" height="18" viewBox="0 0 123 18" fill="none" xmlns="http://www.w3.org/2000/svg">
  <path d="M55.6309 2.97486H61.5393V17.857H63.7644V2.97486H69.6729V0.740234H55.6309V2.97486Z" fill="white"/>
  <path d="M72.6237 17.8568V17.896H85.5635V15.6614H72.3872V17.8568H72.6237Z" fill="white"/>
  <path d="M84.6083 7.96924H72.3872V10.2039H84.6083V7.96924Z" fill="white"/>
  <path d="M85.5635 0.719419L72.3872 0.710205V2.95405H85.5635V0.719419Z" fill="white"/>
  <path d="M116.236 0.779297H112.309C108.761 0.779297 105.875 3.6751 105.875 7.23437V11.3834C105.875 14.9427 108.761 17.8385 112.309 17.8385H116.236C119.783 17.8385 122.67 14.9427 122.67 11.3834V7.23437C122.67 3.6751 119.783 0.779297 116.236 0.779297ZM120.442 11.3834C120.442 13.7102 118.555 15.6039 116.236 15.6039H112.309C109.99 15.6039 108.102 13.7102 108.102 11.3834V7.23437C108.102 4.9076 109.99 3.01392 112.309 3.01392H116.236C118.555 3.01392 120.442 4.9076 120.442 7.23437V11.3834Z" fill="white"/>
  <path d="M103.11 5.6447C103.11 2.93319 100.912 0.728516 98.2093 0.728516H88.0205V17.896H90.2479V10.5609H96.0347L100.942 17.8637H103.626L98.7007 10.5355C101.172 10.2867 103.107 8.18802 103.107 5.6447H103.11ZM96.9739 8.32625H90.2479V2.96314H98.2093C99.6836 2.96314 100.882 4.16569 100.882 5.6447C100.882 7.1237 99.6836 8.32625 98.2093 8.32625H96.9739Z" fill="white"/>
  <path d="M49.9909 0.714706V16.2373L41.6093 0.714706L37.9375 0.712402V0.714706V17.8568H40.1649V2.72587L48.3376 17.8637L52.2161 17.8568V0.714706V0.712402H49.9909V0.714706Z" fill="white"/>
  <path d="M23.9691 0.714844L17.2087 17.8639H19.6038L26.0657 1.47277L32.5275 17.8639H34.9203L28.1599 0.714844H23.9691Z" fill="white"/>
  <path d="M12.0511 16.2375L3.67182 0.71495L0 0.712646V0.71495V17.8571H2.22514V2.72611L10.3978 17.864L14.2786 17.8571V0.71495H12.0511V16.2375Z" fill="white"/>
  </svg>
  