<?xml version="1.0" encoding="UTF-8" standalone="no"?>
<svg xmlns="http://www.w3.org/2000/svg"  xmlns:svg="http://www.w3.org/2000/svg" version="1.1" viewBox="0 0 235 51">
  <title>Federal Communications Commission Logo</title>
  <g style="stroke:none;fill:white" transform="translate(0,-16.75)">
    <g id="lettering" transform="scale(1.54,1.54) translate(-29.1,-15)">
      <path d="M 81.848,34.4017 V 27.19 h 6.6387 v 1.209 h -5.2285 v 1.6765 h 4.4941 v 1.211 h -4.4941 v 3.1152 H 81.848"/>
      <path d="m 90.7484,31.1283 h 3.3239 c -0.1719,-0.8281 -0.7344,-1.2422 -1.6875,-1.2422 -0.8922,0 -1.4391,0.4141 -1.6364,1.2422 m 3.1852,1.6758 h 1.3496 c -0.0254,0.1328 -0.0957,0.2882 -0.2031,0.466 -0.1094,0.1797 -0.2676,0.3738 -0.4707,0.5808 -0.2051,0.2082 -0.4922,0.3821 -0.8594,0.5223 -0.3672,0.1379 -0.7832,0.2074 -1.2461,0.2074 -0.9391,0 -1.6812,-0.2636 -2.2262,-0.7941 -0.5468,-0.5281 -0.8183,-1.2176 -0.8183,-2.0633 0,-0.8008 0.2578,-1.4719 0.7734,-2.0148 0.5156,-0.5411 1.2442,-0.8125 2.1813,-0.8125 0.9804,0.0058 1.7187,0.2929 2.2187,0.8586 0.4981,0.5644 0.75,1.3406 0.75,2.3261 h -4.6734 c 0.1386,0.9656 0.7246,1.4688 1.7554,1.5078 0.3711,0 0.6856,-0.0754 0.9415,-0.2226 0.2597,-0.1496 0.4355,-0.336 0.5273,-0.5617"/>
      <path d="M 101.714,32.7552 V 30.681 c -0.188,-0.1523 -0.334,-0.2664 -0.447,-0.3406 -0.114,-0.0774 -0.295,-0.1621 -0.547,-0.2539 -0.252,-0.093 -0.512,-0.1399 -0.7837,-0.1399 -0.5105,0 -0.95,0.1575 -1.3191,0.4719 -0.3711,0.3145 -0.5567,0.7567 -0.5567,1.3242 0,0.5555 0.1797,0.993 0.5372,1.3106 0.3554,0.3164 0.789,0.4765 1.3,0.4765 0.2573,0 0.5093,-0.0468 0.7593,-0.1398 0.246,-0.0918 0.426,-0.1766 0.539,-0.2527 0.114,-0.0774 0.285,-0.2043 0.518,-0.3821 m 0.017,1.6465 v -0.6844 c -0.593,0.5762 -1.298,0.8641 -2.1111,0.8641 -0.7879,0 -1.4539,-0.2617 -1.9949,-0.7852 -0.543,-0.5222 -0.8145,-1.2187 -0.8145,-2.0925 0,-0.8215 0.2598,-1.4942 0.7793,-2.0196 0.5176,-0.5254 1.211,-0.789 2.079,-0.789 0.3183,0 0.6112,0.0398 0.8832,0.1191 0.271,0.0797 0.474,0.161 0.609,0.243 0.139,0.0832 0.32,0.2082 0.553,0.373 V 27.19 h 1.228 v 7.2117 h -1.211"/>
      <path d="m 106.06,31.1283 h 3.324 c -0.172,-0.8281 -0.735,-1.2422 -1.688,-1.2422 -0.894,0 -1.439,0.4141 -1.636,1.2422 m 3.183,1.6758 h 1.35 c -0.026,0.1328 -0.094,0.2882 -0.203,0.466 -0.11,0.1797 -0.266,0.3738 -0.471,0.5808 -0.205,0.2082 -0.492,0.3821 -0.857,0.5223 -0.368,0.1379 -0.784,0.2074 -1.249,0.2074 -0.937,0 -1.679,-0.2636 -2.226,-0.7941 -0.545,-0.5281 -0.818,-1.2176 -0.818,-2.0633 0,-0.8008 0.259,-1.4719 0.775,-2.0148 0.516,-0.5411 1.242,-0.8125 2.182,-0.8125 0.98,0.0058 1.718,0.2929 2.218,0.8586 0.498,0.5644 0.75,1.3406 0.75,2.3261 h -4.675 c 0.138,0.9656 0.726,1.4688 1.755,1.5078 0.373,0 0.686,-0.0754 0.944,-0.2226 0.26,-0.1496 0.433,-0.336 0.525,-0.5617"/>
      <path d="m 112.468,34.4017 v -5.3281 h 1.23 v 0.7941 h 0.03 c 0.398,-0.6488 1.019,-0.9718 1.865,-0.9718 0.205,0 0.351,0.007 0.437,0.0195 v 1.3301 c -0.263,-0.0664 -0.515,-0.1004 -0.754,-0.1004 -0.297,0 -0.55,0.0418 -0.763,0.125 -0.213,0.0828 -0.367,0.1719 -0.467,0.2676 -0.1,0.0964 -0.176,0.2234 -0.233,0.3816 -0.056,0.1582 -0.087,0.2754 -0.093,0.3527 -0.01,0.075 -0.014,0.1766 -0.022,0.3016 v 2.8281 h -1.23"/>
      <path d="m 121.687,32.933 v -1.2188 c -0.649,0.0254 -1.288,0.1145 -1.916,0.2668 -0.389,0.0938 -0.674,0.209 -0.852,0.3477 -0.18,0.1386 -0.273,0.3242 -0.279,0.5554 -0.006,0.2317 0.066,0.4141 0.218,0.5461 0.153,0.1328 0.377,0.1993 0.676,0.1993 0.666,0 1.385,-0.2325 2.153,-0.6965 m 1.228,-2.0535 v 2.6589 c 0,0.4512 0.035,0.7383 0.102,0.8633 h -1.262 c -0.047,-0.2117 -0.068,-0.3894 -0.068,-0.5351 -0.829,0.4757 -1.604,0.714 -2.333,0.714 -0.205,0 -0.414,-0.0234 -0.625,-0.0695 -0.212,-0.0457 -0.431,-0.1258 -0.66,-0.2371 -0.228,-0.1133 -0.416,-0.2805 -0.56,-0.502 -0.147,-0.2226 -0.219,-0.4883 -0.219,-0.7988 0,-0.291 0.066,-0.548 0.197,-0.7734 0.135,-0.2258 0.325,-0.4121 0.573,-0.5606 0.248,-0.1484 0.505,-0.2746 0.773,-0.3781 0.268,-0.1016 0.588,-0.1836 0.957,-0.243 0.371,-0.0586 0.691,-0.1015 0.963,-0.1281 0.271,-0.0273 0.582,-0.0496 0.934,-0.0691 v -0.2395 c 0,-0.4617 -0.461,-0.6934 -1.381,-0.6934 -0.846,0 -1.325,0.2344 -1.438,0.7043 h -1.279 c 0.23,-1.132 1.133,-1.6964 2.707,-1.6964 0.359,0 0.676,0.0234 0.953,0.0753 0.277,0.0489 0.508,0.1094 0.689,0.1836 0.182,0.0711 0.338,0.1688 0.467,0.2918 0.129,0.1223 0.225,0.2344 0.287,0.336 0.063,0.1035 0.114,0.2304 0.151,0.382 0.035,0.1524 0.056,0.2762 0.062,0.368 0.008,0.0929 0.01,0.209 0.01,0.3469"/>
      <path d="m 125.12,27.19 h 1.229 v 7.2117 H 125.12 V 27.19"/>
      <path d="m 88.0199,43.5357 h 1.4082 c -0.0332,0.2117 -0.082,0.4129 -0.1484,0.6043 -0.0664,0.1926 -0.1934,0.4277 -0.3828,0.7051 -0.1875,0.2773 -0.4141,0.5156 -0.6836,0.709 -0.2676,0.1953 -0.6465,0.3671 -1.1367,0.5117 -0.4883,0.1457 -1.0489,0.2187 -1.6758,0.2187 -1.1973,0 -2.1758,-0.334 -2.9375,-1.0039 -0.7598,-0.6668 -1.1406,-1.6316 -1.1406,-2.8953 0,-1.1066 0.3535,-1.9933 1.0625,-2.6652 0.707,-0.6719 1.748,-1.0078 3.125,-1.0078 0.4296,0 0.8261,0.0382 1.1914,0.1152 0.3632,0.0754 0.666,0.1707 0.9121,0.2824 0.2441,0.1133 0.4668,0.252 0.664,0.4168 0.1993,0.1653 0.3536,0.3195 0.4668,0.461 0.1114,0.1425 0.2129,0.3007 0.3008,0.4765 0.0899,0.175 0.1504,0.3086 0.1797,0.4024 0.0293,0.0918 0.0586,0.1886 0.0859,0.2871 0.0059,0.0195 0.0098,0.0332 0.0098,0.039 h -1.4102 c -0.0253,-0.0847 -0.082,-0.1875 -0.1699,-0.3066 -0.084,-0.1199 -0.2109,-0.2566 -0.3808,-0.4121 -0.168,-0.1563 -0.4082,-0.286 -0.7188,-0.3926 -0.3125,-0.1055 -0.6621,-0.157 -1.0527,-0.157 -0.9512,0 -1.6602,0.2371 -2.127,0.7129 -0.4668,0.4773 -0.7011,1.1109 -0.7011,1.905 0,0.8008 0.2578,1.4219 0.7714,1.8664 0.5098,0.4442 1.1719,0.6649 1.9786,0.6649 0.7343,0 1.3125,-0.166 1.7343,-0.4961 0.4258,-0.3309 0.6817,-0.6797 0.7754,-1.0418"/>
      <path d="m 92.6035,44.7513 c 0.3047,0.3203 0.7305,0.4805 1.2793,0.4805 0.5488,0 0.9766,-0.1602 1.2813,-0.4805 0.3027,-0.3211 0.455,-0.7656 0.455,-1.334 0,-0.5906 -0.164,-1.032 -0.4902,-1.3261 -0.3281,-0.2938 -0.7441,-0.4414 -1.2461,-0.4414 -0.5098,0 -0.9258,0.1476 -1.25,0.4414 -0.3223,0.2941 -0.4859,0.7355 -0.4859,1.3261 0,0.5684 0.1519,1.0129 0.4566,1.334 m 2.3653,1.3789 c -0.3399,0.1016 -0.7012,0.1543 -1.086,0.1543 -0.3828,0 -0.7441,-0.0527 -1.0859,-0.1543 C 92.457,46.0287 92.141,45.8705 91.85,45.6595 91.559,45.4466 91.3266,45.1498 91.1547,44.7709 90.9828,44.39 90.8988,43.9447 90.8988,43.4361 c 0,-0.3703 0.0567,-0.7207 0.1719,-1.052 0.1152,-0.3308 0.2891,-0.6316 0.5215,-0.9023 0.2305,-0.2723 0.543,-0.4871 0.9371,-0.6453 0.3945,-0.1594 0.8437,-0.2383 1.3535,-0.2383 0.5098,0 0.961,0.0789 1.3555,0.2383 0.3926,0.1582 0.7051,0.373 0.9375,0.6453 0.2305,0.2707 0.4043,0.5715 0.5215,0.9023 0.1152,0.3313 0.1738,0.6817 0.1738,1.052 0,0.5086 -0.0859,0.9539 -0.2598,1.3348 -0.1718,0.3789 -0.4023,0.6757 -0.6933,0.8886 -0.291,0.211 -0.6075,0.3692 -0.9492,0.4707"/>
      <path d="m 98.5762,46.1048 v -5.3281 h 1.2097 v 0.6047 l 0.1313,-0.1086 c 0.0777,-0.0723 0.1288,-0.1172 0.1478,-0.1328 0.02,-0.0176 0.075,-0.0586 0.164,-0.1238 0.088,-0.0676 0.159,-0.1125 0.208,-0.1348 0.05,-0.0227 0.123,-0.0586 0.218,-0.1047 0.096,-0.0457 0.188,-0.0789 0.274,-0.0996 0.086,-0.0195 0.187,-0.0379 0.302,-0.0547 0.116,-0.0156 0.237,-0.0234 0.362,-0.0234 0.33,0 0.623,0.0519 0.879,0.1582 0.254,0.1055 0.433,0.209 0.535,0.3078 0.103,0.0984 0.209,0.2273 0.322,0.3875 0.471,-0.5703 1.094,-0.8535 1.875,-0.8535 0.629,0 1.127,0.1387 1.494,0.4211 0.367,0.2801 0.549,0.7187 0.549,1.3144 v 3.7703 h -1.228 v -3.2253 c 0,-0.4426 -0.084,-0.7579 -0.254,-0.9465 -0.168,-0.1883 -0.44,-0.2832 -0.819,-0.2832 -0.463,0 -0.935,0.2246 -1.418,0.6738 v 3.7812 h -1.23 v -3.2253 c 0,-0.4426 -0.084,-0.7579 -0.254,-0.9465 -0.168,-0.1883 -0.441,-0.2832 -0.818,-0.2832 -0.463,0 -0.936,0.2246 -1.4186,0.6738 v 3.7812 h -1.2312"/>
      <path d="m 109.263,46.1048 v -5.3281 h 1.211 v 0.6047 l 0.129,-0.1086 c 0.08,-0.0723 0.128,-0.1172 0.148,-0.1328 0.021,-0.0176 0.074,-0.0586 0.164,-0.1238 0.09,-0.0676 0.158,-0.1125 0.207,-0.1348 0.051,-0.0227 0.125,-0.0586 0.221,-0.1047 0.094,-0.0457 0.185,-0.0789 0.271,-0.0996 0.086,-0.0195 0.188,-0.0379 0.303,-0.0547 0.115,-0.0156 0.236,-0.0234 0.363,-0.0234 0.33,0 0.623,0.0519 0.877,0.1582 0.254,0.1055 0.434,0.209 0.537,0.3078 0.102,0.0984 0.209,0.2273 0.323,0.3875 0.468,-0.5703 1.093,-0.8535 1.873,-0.8535 0.631,0 1.127,0.1387 1.494,0.4211 0.369,0.2801 0.551,0.7187 0.551,1.3144 v 3.7703 h -1.231 v -3.2253 c 0,-0.4426 -0.084,-0.7579 -0.252,-0.9465 -0.168,-0.1883 -0.441,-0.2832 -0.818,-0.2832 -0.465,0 -0.936,0.2246 -1.42,0.6738 v 3.7812 h -1.231 v -3.2253 c 0,-0.4426 -0.084,-0.7579 -0.254,-0.9465 -0.167,-0.1883 -0.439,-0.2832 -0.818,-0.2832 -0.461,0 -0.933,0.2246 -1.418,0.6738 v 3.7812 h -1.23"/>
      <path d="m 125.278,40.7767 v 5.3281 h -1.211 v -0.666 c -0.152,0.1602 -0.298,0.2922 -0.441,0.3985 -0.143,0.1054 -0.354,0.207 -0.631,0.3027 -0.279,0.0957 -0.586,0.1437 -0.924,0.1437 -1.386,0 -2.082,-0.6984 -2.082,-2.0929 v -3.4141 h 1.231 v 2.957 c 0,0.5293 0.088,0.9122 0.263,1.1465 0.174,0.2344 0.467,0.3516 0.877,0.3516 0.303,0 0.575,-0.0418 0.809,-0.1289 0.234,-0.0859 0.408,-0.1758 0.519,-0.2715 0.114,-0.0977 0.235,-0.2246 0.36,-0.3828 v -3.6719 h 1.23"/>
      <path d="m 127.372,46.1048 v -5.3281 h 1.209 v 0.6653 c 0.172,-0.1653 0.324,-0.2981 0.457,-0.3965 0.133,-0.0996 0.338,-0.1993 0.613,-0.2981 0.28,-0.0996 0.588,-0.1484 0.926,-0.1484 1.389,0 2.082,0.6972 2.082,2.093 v 3.4128 h -1.23 v -2.957 c 0,-0.5281 -0.088,-0.9109 -0.264,-1.1465 -0.174,-0.2343 -0.467,-0.3515 -0.877,-0.3515 -0.305,0 -0.574,0.0429 -0.81,0.1289 -0.235,0.0859 -0.407,0.1777 -0.52,0.2726 -0.113,0.0957 -0.23,0.2235 -0.357,0.3828 v 3.6707 h -1.229"/>
      <path d="m 134.853,40.7767 h 1.23 v 5.3281 h -1.23 z m 0,-2.0644 h 1.23 v 1.0918 h -1.23 v -1.0918"/>
      <path d="m 142.61,44.2005 h 1.291 c -0.047,0.211 -0.13,0.427 -0.254,0.6446 -0.123,0.2187 -0.291,0.4414 -0.505,0.6699 -0.215,0.2285 -0.504,0.4141 -0.87,0.5547 -0.363,0.1437 -0.775,0.214 -1.238,0.214 -0.922,0 -1.668,-0.2433 -2.244,-0.7296 -0.574,-0.4844 -0.861,-1.2352 -0.861,-2.2469 0,-0.7336 0.271,-1.3672 0.816,-1.9008 0.547,-0.532 1.272,-0.8023 2.18,-0.8074 0.461,0 0.881,0.0605 1.254,0.1836 0.375,0.1211 0.672,0.2844 0.892,0.4863 0.223,0.2012 0.393,0.4168 0.512,0.6445 0.119,0.2286 0.191,0.4602 0.217,0.6993 h -1.229 c -0.066,-0.2442 -0.238,-0.4668 -0.515,-0.6641 -0.28,-0.1992 -0.629,-0.2988 -1.053,-0.2988 -0.555,0 -0.998,0.1711 -1.33,0.5109 -0.33,0.3418 -0.496,0.7391 -0.496,1.1953 0,0.5438 0.148,0.991 0.443,1.3445 0.293,0.3547 0.723,0.5313 1.285,0.5313 0.489,0 0.881,-0.1035 1.176,-0.3125 0.293,-0.209 0.471,-0.4473 0.529,-0.7188"/>
      <path d="m 149.694,44.6361 v -1.2188 c -0.648,0.0266 -1.285,0.1153 -1.916,0.2668 -0.388,0.0926 -0.674,0.209 -0.853,0.3473 -0.178,0.1379 -0.27,0.3234 -0.276,0.5559 -0.007,0.2324 0.065,0.414 0.217,0.5449 0.153,0.1328 0.377,0.1984 0.674,0.1984 0.67,0 1.387,-0.2304 2.154,-0.6945 m 1.231,-2.0535 v 2.6609 c 0,0.4492 0.033,0.7363 0.099,0.8613 h -1.259 c -0.047,-0.2117 -0.071,-0.3906 -0.071,-0.5351 -0.826,0.4758 -1.603,0.7148 -2.332,0.7148 -0.205,0 -0.414,-0.0242 -0.625,-0.0691 -0.211,-0.0481 -0.431,-0.1262 -0.66,-0.2395 -0.228,-0.1132 -0.416,-0.2793 -0.56,-0.5019 -0.147,-0.2207 -0.217,-0.4871 -0.217,-0.7977 0,-0.291 0.064,-0.548 0.197,-0.7734 0.133,-0.2258 0.324,-0.4133 0.57,-0.5617 0.25,-0.1485 0.506,-0.2735 0.774,-0.377 0.267,-0.1015 0.588,-0.1836 0.959,-0.243 0.369,-0.0597 0.689,-0.1015 0.963,-0.1289 0.271,-0.0253 0.582,-0.05 0.931,-0.0683 v -0.2383 c 0,-0.4629 -0.459,-0.6953 -1.379,-0.6953 -0.847,0 -1.326,0.2344 -1.439,0.7051 h -1.279 c 0.23,-1.1321 1.134,-1.6973 2.709,-1.6973 0.357,0 0.675,0.025 0.951,0.075 0.277,0.0488 0.508,0.1094 0.691,0.1836 0.18,0.0715 0.336,0.1699 0.467,0.293 0.127,0.1211 0.223,0.2343 0.285,0.3359 0.065,0.1035 0.113,0.2305 0.151,0.3828 0.035,0.1516 0.058,0.2746 0.064,0.3664 0.006,0.0938 0.01,0.209 0.01,0.3477"/>
      <path d="m 152.454,42.0072 v -1.0516 h 0.951 v -1.7375 h 1.231 v 1.7375 h 1.855 v 1.0516 h -1.855 v 2.4406 c 0,0.5234 0.289,0.784 0.863,0.784 0.352,0 0.701,-0.0488 1.053,-0.1484 v 1.082 c -0.61,0.0801 -1.053,0.1191 -1.33,0.1191 -0.616,0 -1.073,-0.1172 -1.369,-0.3535 -0.299,-0.2344 -0.448,-0.6336 -0.448,-1.1961 v -2.7277 h -0.951"/>
      <path d="m 158.296,40.7767 h 1.23 v 5.3281 h -1.23 z m 0,-2.0644 h 1.23 v 1.0918 h -1.23 v -1.0918"/>
      <path d="m 163.079,44.7513 c 0.305,0.3203 0.731,0.4805 1.279,0.4805 0.549,0 0.977,-0.1602 1.28,-0.4805 0.304,-0.3211 0.457,-0.7656 0.457,-1.334 0,-0.5906 -0.164,-1.032 -0.492,-1.3261 -0.327,-0.2938 -0.741,-0.4414 -1.245,-0.4414 -0.507,0 -0.925,0.1476 -1.25,0.4414 -0.324,0.2941 -0.486,0.7355 -0.486,1.3261 0,0.5684 0.152,1.0129 0.457,1.334 m 2.365,1.3789 c -0.34,0.1016 -0.701,0.1543 -1.086,0.1543 -0.382,0 -0.744,-0.0527 -1.086,-0.1543 -0.339,-0.1015 -0.656,-0.2597 -0.947,-0.4707 -0.291,-0.2129 -0.523,-0.5097 -0.695,-0.8886 -0.172,-0.3809 -0.258,-0.8262 -0.258,-1.3348 0,-0.3703 0.057,-0.7207 0.174,-1.052 0.115,-0.3308 0.289,-0.6316 0.521,-0.9023 0.233,-0.2723 0.543,-0.4871 0.938,-0.6453 0.392,-0.1594 0.846,-0.2383 1.353,-0.2383 0.51,0 0.961,0.0789 1.356,0.2383 0.392,0.1582 0.705,0.373 0.937,0.6453 0.231,0.2707 0.405,0.5715 0.522,0.9023 0.115,0.3313 0.174,0.6817 0.174,1.052 0,0.5086 -0.088,0.9539 -0.26,1.3348 -0.172,0.3789 -0.402,0.6757 -0.693,0.8886 -0.291,0.211 -0.608,0.3692 -0.95,0.4707"/>
      <path d="m 169.091,46.1048 v -5.3281 h 1.211 v 0.6653 c 0.172,-0.1653 0.324,-0.2981 0.457,-0.3965 0.131,-0.0996 0.336,-0.1993 0.613,-0.2981 0.279,-0.0996 0.588,-0.1484 0.924,-0.1484 1.389,0 2.084,0.6972 2.084,2.093 v 3.4128 h -1.231 v -2.957 c 0,-0.5281 -0.087,-0.9109 -0.263,-1.1465 -0.176,-0.2343 -0.467,-0.3515 -0.877,-0.3515 -0.305,0 -0.576,0.0429 -0.809,0.1289 -0.234,0.0859 -0.408,0.1777 -0.521,0.2726 -0.114,0.0957 -0.233,0.2235 -0.358,0.3828 v 3.6707 h -1.23"/>
      <path d="m 181.513,41.849 -1.022,0.5644 c -0.078,-0.0984 -0.15,-0.1785 -0.207,-0.2422 -0.06,-0.0632 -0.16,-0.1484 -0.299,-0.2578 -0.138,-0.1093 -0.312,-0.1922 -0.521,-0.2488 -0.207,-0.0547 -0.443,-0.084 -0.709,-0.084 -0.41,0 -0.711,0.0645 -0.902,0.1922 -0.192,0.1309 -0.288,0.2805 -0.288,0.4524 0,0.0996 0.026,0.1835 0.079,0.248 0.052,0.0664 0.146,0.1207 0.283,0.1641 0.135,0.0437 0.258,0.075 0.367,0.0945 0.109,0.0195 0.283,0.0461 0.519,0.0793 0.299,0.0398 0.54,0.075 0.721,0.1043 0.182,0.0293 0.395,0.0742 0.641,0.1348 0.244,0.0585 0.439,0.1269 0.59,0.2011 0.148,0.0774 0.293,0.1731 0.431,0.2891 0.139,0.1152 0.241,0.259 0.307,0.4277 0.066,0.1672 0.1,0.3586 0.1,0.5703 0,0.2969 -0.067,0.5567 -0.198,0.7774 -0.133,0.2219 -0.293,0.3926 -0.482,0.5117 -0.188,0.1191 -0.414,0.2148 -0.674,0.2871 -0.262,0.0723 -0.492,0.1203 -0.689,0.1387 -0.2,0.0207 -0.405,0.0304 -0.616,0.0304 -0.437,0 -0.816,-0.0363 -1.14,-0.1085 -0.326,-0.0723 -0.602,-0.1875 -0.83,-0.3418 -0.227,-0.1563 -0.395,-0.2872 -0.5,-0.3926 -0.106,-0.1055 -0.239,-0.2578 -0.399,-0.4559 l 1.043,-0.6066 c 0.377,0.6094 1.026,0.9121 1.945,0.9121 0.358,0 0.655,-0.0547 0.893,-0.1668 0.236,-0.1133 0.356,-0.2785 0.356,-0.4961 0,-0.1926 -0.09,-0.3195 -0.272,-0.384 -0.182,-0.0613 -0.627,-0.1433 -1.334,-0.2402 -0.49,-0.0613 -0.898,-0.1473 -1.227,-0.2598 -0.326,-0.1113 -0.576,-0.2441 -0.748,-0.3965 -0.171,-0.1523 -0.291,-0.3125 -0.359,-0.4812 -0.064,-0.1699 -0.098,-0.3633 -0.098,-0.5813 0,-0.1648 0.038,-0.3328 0.11,-0.5058 0.072,-0.1727 0.193,-0.3535 0.363,-0.545 0.168,-0.1921 0.428,-0.3476 0.777,-0.4667 0.352,-0.118 0.772,-0.1778 1.26,-0.1778 0.272,0 0.541,0.0227 0.811,0.0684 0.267,0.048 0.592,0.1699 0.976,0.3722 0.383,0.202 0.698,0.4754 0.942,0.8192"/>
      <path d="m 88.0199,55.2377 h 1.4082 c -0.0332,0.2128 -0.082,0.414 -0.1484,0.6054 -0.0664,0.1914 -0.1934,0.427 -0.3828,0.7051 -0.1875,0.2773 -0.4141,0.5148 -0.6836,0.7102 -0.2676,0.1941 -0.6465,0.366 -1.1367,0.50972 -0.4883,0.14532 -1.0489,0.21875 -1.6758,0.21875 -1.1973,0 -2.1758,-0.3332 -2.9375,-1.00317 -0.7598,-0.6667 -1.1406,-1.6328 -1.1406,-2.8964 0,-1.1055 0.3535,-1.9922 1.0625,-2.6641 0.707,-0.6707 1.748,-1.0078 3.125,-1.0078 0.4296,0 0.8261,0.0391 1.1914,0.1152 0.3632,0.0762 0.666,0.1699 0.9121,0.2824 0.2441,0.1133 0.4668,0.2508 0.664,0.4168 0.1993,0.1661 0.3536,0.3196 0.4668,0.4629 0.1114,0.1407 0.2129,0.3008 0.3008,0.4746 0.0899,0.175 0.1504,0.3086 0.1797,0.4024 0.0293,0.0918 0.0586,0.1875 0.0859,0.2871 0.0059,0.0195 0.0098,0.0332 0.0098,0.0391 h -1.4102 c -0.0253,-0.084 -0.082,-0.1875 -0.1699,-0.3067 -0.084,-0.1203 -0.2109,-0.2578 -0.3808,-0.4121 -0.168,-0.1543 -0.4082,-0.2851 -0.7188,-0.3926 -0.3125,-0.1054 -0.6621,-0.1582 -1.0527,-0.1582 -0.9512,0 -1.6602,0.2383 -2.127,0.7149 -0.4668,0.4765 -0.7011,1.1113 -0.7011,1.9043 0,0.8007 0.2578,1.4218 0.7714,1.8664 0.5098,0.4441 1.1719,0.664 1.9786,0.664 0.7343,0 1.3125,-0.1652 1.7343,-0.4972 0.4258,-0.3301 0.6817,-0.6766 0.7754,-1.041"/>
      <path d="m 92.6035,56.4537 c 0.3047,0.3211 0.7305,0.4824 1.2793,0.4824 0.5488,0 0.9766,-0.1613 1.2813,-0.4824 0.3027,-0.3215 0.455,-0.7649 0.455,-1.334 0,-0.5891 -0.164,-1.0305 -0.4902,-1.3254 -0.3281,-0.293 -0.7441,-0.4414 -1.2461,-0.4414 -0.5098,0 -0.9258,0.1484 -1.25,0.4414 -0.3223,0.2949 -0.4859,0.7363 -0.4859,1.3254 0,0.5691 0.1519,1.0125 0.4566,1.334 m 2.3653,1.37966 c -0.3399,0.10156 -0.7012,0.15351 -1.086,0.15351 -0.3828,0 -0.7441,-0.05195 -1.0859,-0.15351 C 92.457,57.7318 92.141,57.5728 91.85,57.3627 91.559,57.1498 91.3266,56.8529 91.1547,56.474 90.9828,56.0931 90.8988,55.6478 90.8988,55.14 c 0,-0.3711 0.0567,-0.7215 0.1719,-1.0527 0.1152,-0.3301 0.2891,-0.6317 0.5215,-0.9024 0.2305,-0.2715 0.543,-0.4863 0.9371,-0.6453 0.3945,-0.1574 0.8437,-0.2394 1.3535,-0.2394 0.5098,0 0.961,0.082 1.3555,0.2394 0.3926,0.159 0.7051,0.3738 0.9375,0.6453 0.2305,0.2707 0.4043,0.5723 0.5215,0.9024 0.1152,0.3312 0.1738,0.6816 0.1738,1.0527 0,0.5078 -0.0859,0.9531 -0.2598,1.334 -0.1718,0.3789 -0.4023,0.6758 -0.6933,0.8887 -0.291,0.2101 -0.6075,0.3691 -0.9492,0.47066"/>
      <path d="M 98.5762,57.80797 V 52.4798 h 1.2097 v 0.6036 l 0.1313,-0.1075 c 0.0777,-0.0722 0.1288,-0.1172 0.1478,-0.1328 0.02,-0.0176 0.075,-0.0586 0.164,-0.125 0.088,-0.0664 0.159,-0.1101 0.208,-0.1336 0.05,-0.0226 0.123,-0.0578 0.218,-0.1047 0.096,-0.0457 0.188,-0.08 0.274,-0.0996 0.086,-0.0195 0.187,-0.0379 0.302,-0.0527 0.116,-0.0176 0.237,-0.0254 0.362,-0.0254 0.33,0 0.623,0.052 0.879,0.1574 0.254,0.1063 0.433,0.2098 0.535,0.3086 0.103,0.0985 0.209,0.2293 0.322,0.3875 0.471,-0.5703 1.094,-0.8535 1.875,-0.8535 0.629,0 1.127,0.1399 1.494,0.4199 0.367,0.2825 0.549,0.7207 0.549,1.3145 v 3.77147 h -1.228 V 54.5826 c 0,-0.4426 -0.084,-0.7571 -0.254,-0.9465 -0.168,-0.1883 -0.44,-0.2832 -0.819,-0.2832 -0.463,0 -0.935,0.2246 -1.418,0.6738 v 3.78127 h -1.23 V 54.5826 c 0,-0.4426 -0.084,-0.7571 -0.254,-0.9465 -0.168,-0.1883 -0.441,-0.2832 -0.818,-0.2832 -0.463,0 -0.936,0.2246 -1.4186,0.6738 v 3.78127 h -1.2312"/>
      <path d="M 109.263,57.80797 V 52.4798 h 1.211 v 0.6036 l 0.129,-0.1075 c 0.08,-0.0722 0.128,-0.1172 0.148,-0.1328 0.021,-0.0176 0.074,-0.0586 0.164,-0.125 0.09,-0.0664 0.158,-0.1101 0.207,-0.1336 0.051,-0.0226 0.125,-0.0578 0.221,-0.1047 0.094,-0.0457 0.185,-0.08 0.271,-0.0996 0.086,-0.0195 0.188,-0.0379 0.303,-0.0527 0.115,-0.0176 0.236,-0.0254 0.363,-0.0254 0.33,0 0.623,0.052 0.877,0.1574 0.254,0.1063 0.434,0.2098 0.537,0.3086 0.102,0.0985 0.209,0.2293 0.323,0.3875 0.468,-0.5703 1.093,-0.8535 1.873,-0.8535 0.631,0 1.127,0.1399 1.494,0.4199 0.369,0.2825 0.551,0.7207 0.551,1.3145 v 3.77147 h -1.231 V 54.5826 c 0,-0.4426 -0.084,-0.7571 -0.252,-0.9465 -0.168,-0.1883 -0.441,-0.2832 -0.818,-0.2832 -0.465,0 -0.936,0.2246 -1.42,0.6738 v 3.78127 h -1.231 V 54.5826 c 0,-0.4426 -0.084,-0.7571 -0.254,-0.9465 -0.167,-0.1883 -0.439,-0.2832 -0.818,-0.2832 -0.461,0 -0.933,0.2246 -1.418,0.6738 v 3.78127 h -1.23"/>
      <path d="m 120.087,52.4798 h 1.23 v 5.32817 h -1.23 z m 0,-2.0644 h 1.23 v 1.0918 h -1.23 v -1.0918"/>
      <path d="m 128.552,53.5521 -1.022,0.5645 c -0.08,-0.0985 -0.15,-0.1786 -0.209,-0.2422 -0.06,-0.0645 -0.158,-0.1485 -0.297,-0.2578 -0.138,-0.1094 -0.314,-0.1922 -0.523,-0.2481 -0.207,-0.0566 -0.443,-0.0859 -0.709,-0.0859 -0.41,0 -0.711,0.0664 -0.902,0.1945 -0.192,0.1297 -0.287,0.2793 -0.287,0.45 0,0.1016 0.025,0.1836 0.08,0.25 0.05,0.0664 0.146,0.1211 0.281,0.1633 0.137,0.0437 0.26,0.075 0.369,0.0945 0.107,0.0196 0.281,0.0449 0.52,0.0793 0.296,0.0399 0.539,0.0731 0.72,0.1035 0.18,0.0313 0.395,0.075 0.639,0.1336 0.244,0.0606 0.443,0.1282 0.59,0.2032 0.148,0.0769 0.293,0.1738 0.431,0.289 0.141,0.1152 0.243,0.259 0.309,0.4277 0.066,0.1672 0.098,0.3586 0.098,0.5684 0,0.2988 -0.065,0.5578 -0.198,0.7793 -0.132,0.2219 -0.293,0.3926 -0.482,0.5117 -0.188,0.11917 -0.412,0.21487 -0.674,0.28713 -0.262,0.07344 -0.492,0.11914 -0.689,0.13868 -0.198,0.02148 -0.405,0.03046 -0.616,0.03046 -0.435,0 -0.816,-0.03632 -1.14,-0.10859 -0.324,-0.07422 -0.6,-0.1875 -0.828,-0.34378 -0.229,-0.1543 -0.397,-0.2851 -0.502,-0.3906 -0.106,-0.1055 -0.239,-0.2578 -0.397,-0.457 l 1.041,-0.6055 c 0.379,0.6074 1.026,0.9133 1.946,0.9133 0.357,0 0.654,-0.0567 0.892,-0.1692 0.238,-0.1113 0.358,-0.2773 0.358,-0.4949 0,-0.1926 -0.092,-0.3195 -0.274,-0.3828 -0.18,-0.0617 -0.625,-0.1445 -1.332,-0.2433 -0.49,-0.0586 -0.9,-0.1454 -1.226,-0.2579 -0.329,-0.1132 -0.579,-0.2441 -0.75,-0.3964 -0.17,-0.1524 -0.291,-0.3125 -0.358,-0.4825 -0.064,-0.1679 -0.099,-0.3613 -0.099,-0.58 0,-0.1641 0.037,-0.334 0.109,-0.5059 0.074,-0.1719 0.195,-0.3535 0.363,-0.5449 0.168,-0.1922 0.428,-0.3477 0.779,-0.4668 0.35,-0.118 0.77,-0.1797 1.258,-0.1797 0.272,0 0.543,0.0254 0.811,0.0715 0.267,0.0457 0.592,0.1687 0.976,0.3718 0.385,0.1993 0.7,0.4747 0.944,0.8184"/>
      <path d="m 135.378,53.5521 -1.022,0.5645 c -0.08,-0.0985 -0.15,-0.1786 -0.209,-0.2422 -0.06,-0.0645 -0.16,-0.1485 -0.296,-0.2578 -0.141,-0.1094 -0.315,-0.1922 -0.524,-0.2481 -0.207,-0.0566 -0.443,-0.0859 -0.709,-0.0859 -0.41,0 -0.711,0.0664 -0.902,0.1945 -0.192,0.1297 -0.287,0.2793 -0.287,0.45 0,0.1016 0.025,0.1836 0.078,0.25 0.053,0.0664 0.148,0.1211 0.283,0.1633 0.135,0.0437 0.26,0.075 0.367,0.0945 0.11,0.0196 0.283,0.0449 0.522,0.0793 0.297,0.0399 0.537,0.0731 0.718,0.1035 0.182,0.0313 0.397,0.075 0.641,0.1336 0.244,0.0606 0.441,0.1282 0.59,0.2032 0.15,0.0769 0.293,0.1738 0.432,0.289 0.14,0.1152 0.242,0.259 0.308,0.4277 0.065,0.1672 0.098,0.3586 0.098,0.5684 0,0.2988 -0.067,0.5578 -0.197,0.7793 -0.133,0.2219 -0.293,0.3926 -0.483,0.5117 -0.187,0.11917 -0.412,0.21487 -0.674,0.28713 -0.261,0.07344 -0.492,0.11914 -0.689,0.13868 -0.197,0.02148 -0.404,0.03046 -0.615,0.03046 -0.438,0 -0.817,-0.03632 -1.141,-0.10859 -0.324,-0.07422 -0.602,-0.1875 -0.83,-0.34378 -0.227,-0.1543 -0.395,-0.2851 -0.5,-0.3906 -0.106,-0.1055 -0.238,-0.2578 -0.397,-0.457 l 1.041,-0.6055 c 0.377,0.6074 1.026,0.9133 1.946,0.9133 0.357,0 0.654,-0.0567 0.892,-0.1692 0.239,-0.1113 0.358,-0.2773 0.358,-0.4949 0,-0.1926 -0.092,-0.3195 -0.274,-0.3828 -0.181,-0.0617 -0.627,-0.1445 -1.334,-0.2433 -0.488,-0.0586 -0.898,-0.1454 -1.224,-0.2579 -0.328,-0.1132 -0.578,-0.2441 -0.75,-0.3964 -0.172,-0.1524 -0.291,-0.3125 -0.358,-0.4825 -0.064,-0.1679 -0.099,-0.3613 -0.099,-0.58 0,-0.1641 0.037,-0.334 0.109,-0.5059 0.072,-0.1719 0.195,-0.3535 0.363,-0.5449 0.168,-0.1922 0.428,-0.3477 0.778,-0.4668 0.351,-0.118 0.771,-0.1797 1.259,-0.1797 0.272,0 0.541,0.0254 0.811,0.0715 0.268,0.0457 0.592,0.1687 0.977,0.3718 0.384,0.1993 0.697,0.4747 0.943,0.8184"/>
      <path d="m 137.263,52.4798 h 1.228 v 5.32817 h -1.228 z m 0,-2.0644 h 1.228 v 1.0918 h -1.228 v -1.0918"/>
      <path d="m 142.044,56.4537 c 0.305,0.3211 0.73,0.4824 1.279,0.4824 0.551,0 0.977,-0.1613 1.281,-0.4824 0.303,-0.3215 0.458,-0.7649 0.458,-1.334 0,-0.5891 -0.165,-1.0305 -0.493,-1.3254 -0.326,-0.293 -0.742,-0.4414 -1.246,-0.4414 -0.51,0 -0.926,0.1484 -1.25,0.4414 -0.322,0.2949 -0.484,0.7363 -0.484,1.3254 0,0.5691 0.152,1.0125 0.455,1.334 m 2.367,1.37966 c -0.342,0.10156 -0.703,0.15351 -1.088,0.15351 -0.383,0 -0.744,-0.05195 -1.086,-0.15351 -0.34,-0.10156 -0.654,-0.26056 -0.947,-0.47066 -0.289,-0.2129 -0.521,-0.5098 -0.695,-0.8887 -0.172,-0.3809 -0.256,-0.8262 -0.256,-1.334 0,-0.3711 0.057,-0.7215 0.172,-1.0527 0.115,-0.3301 0.289,-0.6317 0.521,-0.9024 0.233,-0.2715 0.545,-0.4863 0.938,-0.6453 0.394,-0.1574 0.843,-0.2394 1.353,-0.2394 0.51,0 0.961,0.082 1.356,0.2394 0.392,0.159 0.705,0.3738 0.937,0.6453 0.231,0.2707 0.405,0.5723 0.522,0.9024 0.115,0.3312 0.174,0.6816 0.174,1.0527 0,0.5078 -0.086,0.9531 -0.26,1.334 -0.172,0.3789 -0.403,0.6758 -0.694,0.8887 -0.291,0.2101 -0.607,0.3691 -0.947,0.47066"/>
      <path d="M 148.058,57.80797 V 52.4798 h 1.209 v 0.6653 c 0.173,-0.1653 0.326,-0.2981 0.457,-0.3977 0.132,-0.0996 0.338,-0.1992 0.615,-0.2969 0.277,-0.0996 0.586,-0.1484 0.924,-0.1484 1.388,0 2.084,0.6973 2.084,2.093 v 3.41287 h -1.233 V 54.8509 c 0,-0.5293 -0.088,-0.9109 -0.261,-1.1453 -0.176,-0.2355 -0.469,-0.3527 -0.879,-0.3527 -0.303,0 -0.575,0.0441 -0.809,0.1289 -0.234,0.0859 -0.408,0.1777 -0.519,0.2727 -0.114,0.0957 -0.233,0.2234 -0.36,0.3828 v 3.67067 h -1.228"/>
    </g>
    <path d="m 54.0133,56.3334 c -3.6063,3.60269 -8.5598,5.82144 -14.0559,5.82144 -5.5011,0 -10.4531,-2.21875 -14.059,-5.82144 -3.6023,-3.6063 -5.8226,-8.5606 -5.8226,-14.0575 0,-5.5011 2.2203,-10.4507 5.8226,-14.0586 3.6059,-3.6007 8.5579,-5.823 14.059,-5.823 5.4961,0 10.4496,2.2223 14.0559,5.823 0.7719,0.7747 1.4793,1.6157 2.1172,2.5059 l 4.4129,-3.2555 C 55.9387,21.0755 48.4348,16.9127 39.9574,16.9087 26.8633,16.9127 16.0945,26.8275 14.7363,39.5619 H 5.10078 V 22.9673 H 17.1059 l 4.341,-5.4285 H 2.70859 v 0 L 0,17.5388 V 66.897031 L 5.10078,63.16734 V 44.9908 h 9.63552 c 1.3582,12.73123 12.127,22.648419 25.2211,22.6492 8.4774,0 15.9813,-4.16484 20.586,-10.5586 l -4.4129,-3.2559 c -0.6379,0.8907 -1.3453,1.7325 -2.1172,2.5079"/>
    <path d="m 39.9574,33.1693 c 3.1106,0.0082 5.8551,1.5723 7.4961,3.9551 l 4.418,-3.2594 c -2.6395,-3.7367 -6.993,-6.177 -11.9141,-6.1793 -8.059,0.0023 -14.5883,6.5309 -14.5883,14.5902 0,8.0567 6.5293,14.584 14.5883,14.5868 4.9211,0 9.2746,-2.4434 11.9141,-6.1786 l -4.418,-3.2597 c -1.641,2.3855 -4.3855,3.9472 -7.4961,3.9539 -5.0281,-0.0098 -9.0969,-4.0762 -9.1043,-9.1024 0.0074,-5.0277 4.0762,-9.0968 9.1043,-9.1066"/>
  </g>
</svg>
